<?xml version="1.0" encoding="iso-8859-1"?>
<!-- Uploaded to: SVG Repo, www.svgrepo.com, Generator: SVG Repo Mixer Tools -->
<svg height="800px" width="800px" version="1.1" id="Capa_1" xmlns="http://www.w3.org/2000/svg" xmlns:xlink="http://www.w3.org/1999/xlink" 
	 viewBox="0 0 300.394 300.394" xml:space="preserve">
<g>
	<path style="fill:#010002;" d="M278.638,95.989h-27.413l35.669-41.402c7.843-9.105,7.74-22.045-0.223-28.903
		c-7.963-6.864-20.783-5.047-28.626,4.058l-57.072,66.248H99.421L42.349,29.741c-7.843-9.105-20.658-10.922-28.626-4.058
		C5.76,32.547,5.657,45.487,13.5,54.587l35.669,41.402H21.756C9.741,95.989,0,101.906,0,109.211c0,7.299,0,13.217,0,13.217h71.943
		c0.087,0,156.422,0,156.422,0c0.087,0,72.03,0,72.03,0v-13.217C300.394,101.906,290.653,95.989,278.638,95.989z"/>
	<path style="fill:#010002;" d="M282.63,136.744H17.764l24.715,120.812c2.41,11.77,14.103,21.316,26.118,21.316h159.985
		c12.015,0,23.916-9.497,26.575-21.212L282.63,136.744z M66.503,261.298L44.067,156.596l21.272-4.558L87.776,256.74L66.503,261.298z
		 M135.498,256.642h-21.756V150.581h21.756V256.642z M186.261,256.642h-21.756V150.581h21.756V256.642z M233.95,261.298
		l-21.272-4.558l22.436-104.702l21.272,4.558L233.95,261.298z"/>
</g>
</svg>