<svg width="55" height="55" viewBox="0 0 55 55" fill="none" xmlns="http://www.w3.org/2000/svg">
<circle cx="27.5" cy="27.5" r="26" stroke="white" stroke-width="3"/>
<path fill-rule="evenodd" clip-rule="evenodd" d="M29.2184 15.9741C30.1758 15.4318 31.3096 15.2921 32.37 15.5857C32.8402 15.7159 33.2419 15.9427 33.6205 16.1988C33.9802 16.442 34.3928 16.7641 34.871 17.1374L34.9407 17.1918C35.4189 17.5651 35.8316 17.8871 36.1549 18.177C36.4952 18.4822 36.8127 18.8169 37.0532 19.2414C37.5955 20.1988 37.7351 21.3325 37.4415 22.3929C37.3114 22.8631 37.0846 23.2648 36.8285 23.6435C36.5852 24.0032 36.2632 24.4158 35.8898 24.894L26.0673 37.4776C26.0424 37.5094 26.018 37.5408 25.9938 37.5719C25.5327 38.1631 25.1841 38.6101 24.7525 38.9772C24.3872 39.288 23.983 39.5499 23.5502 39.7564C23.0388 40.0003 22.4884 40.136 21.7603 40.3155C21.7221 40.3249 21.6835 40.3344 21.6443 40.3441L18.7058 41.0694C18.5024 41.1198 18.2701 41.1773 18.0652 41.2087C17.8367 41.2438 17.483 41.2756 17.0923 41.1506C16.6227 41.0002 16.222 40.6873 15.9621 40.2683C15.7459 39.9197 15.6909 39.5688 15.6695 39.3387C15.6503 39.1322 15.6496 38.893 15.649 38.6834C15.649 38.6704 15.6489 38.6575 15.6489 38.6448L15.6394 35.6567C15.6392 35.6163 15.6391 35.5765 15.639 35.5372C15.6363 34.7874 15.6342 34.2204 15.7468 33.6652C15.842 33.1951 15.998 32.7394 16.2107 32.3098C16.4621 31.802 16.8111 31.3553 17.2728 30.7644C17.297 30.7334 17.3215 30.702 17.3463 30.6702L27.1688 18.0865C27.5421 17.6083 27.8642 17.1957 28.154 16.8724C28.4592 16.532 28.7939 16.2145 29.2184 15.9741ZM31.6319 18.2513C31.2784 18.1534 30.9006 18.2 30.5815 18.3807C30.5272 18.4114 30.4244 18.4834 30.2135 18.7187C29.9941 18.9633 29.73 19.3004 29.3219 19.8232L33.6824 23.227C34.0906 22.7041 34.3534 22.3661 34.5374 22.094C34.7146 21.8323 34.7594 21.7149 34.776 21.6549C34.8739 21.3014 34.8273 20.9236 34.6465 20.6044C34.6158 20.5502 34.5438 20.4473 34.3085 20.2364C34.0639 20.0171 33.7269 19.753 33.204 19.3449C32.6811 18.9367 32.3431 18.6739 32.0711 18.4898C31.8093 18.3128 31.6919 18.2679 31.6319 18.2513ZM31.9805 25.4072L27.6201 22.0035L19.5266 32.372C18.9599 33.0979 18.8001 33.3134 18.6895 33.5368C18.5831 33.7517 18.5051 33.9795 18.4575 34.2145C18.408 34.4588 18.4023 34.727 18.4052 35.6479L18.4136 38.2928L20.9814 37.6589C21.8755 37.4382 22.1342 37.3675 22.3592 37.2601C22.5756 37.1569 22.7777 37.0259 22.9603 36.8705C23.1503 36.709 23.3204 36.5017 23.8871 35.7758L31.9805 25.4072ZM27.595 40.0412C27.595 39.2775 28.2142 38.6583 28.978 38.6583H38.6584C39.4222 38.6583 40.0413 39.2775 40.0413 40.0412C40.0413 40.805 39.4222 41.4242 38.6584 41.4242H28.978C28.2142 41.4242 27.595 40.805 27.595 40.0412Z" fill="currentColor"/>
</svg>
