<svg width="55" height="55" viewBox="0 0 55 55" fill="none" xmlns="http://www.w3.org/2000/svg">
<g clip-path="url(#clip0_16_278)">
<path d="M35.5172 23.5565V20.4311H37.0258C37.859 20.4311 38.5344 19.7556 38.5344 18.9224C38.5344 18.0893 37.859 17.4138 37.0258 17.4138H34.0086H32.5V12.888C32.5 12.0548 31.8245 11.3793 30.9913 11.3793H18.9224C18.0892 11.3793 17.4138 12.0548 17.4138 12.888V17.4138H15.9051H12.8879C12.0547 17.4138 11.3793 18.0893 11.3793 18.9224C11.3793 19.7556 12.0547 20.4311 12.8879 20.4311H14.3965V39.0374C14.3965 39.8705 15.072 40.546 15.9051 40.546H21.9396H25.7208C27.6565 42.9947 30.6521 44.569 34.0086 44.569C39.8316 44.569 44.5689 39.8316 44.5689 34.0086C44.5689 28.6978 40.6281 24.2908 35.5172 23.5565ZM20.431 14.3966H29.4827V17.4138H27.9741H21.9396H20.431V14.3966ZM21.9396 37.5288H17.4138V20.4311H18.9224H21.9396H27.9741H30.9913H32.5V23.5565C27.3891 24.2908 23.4482 28.6978 23.4482 34.0086C23.4482 35.2425 23.6617 36.4272 24.0523 37.5288H21.9396ZM34.0086 41.5517C29.8493 41.5517 26.4655 38.1679 26.4655 34.0086C26.4655 29.8494 29.8493 26.4655 34.0086 26.4655C38.1678 26.4655 41.5517 29.8494 41.5517 34.0086C41.5517 38.1679 38.1678 41.5517 34.0086 41.5517Z" fill="currentColor"/>
<path d="M37.2088 30.8084C36.6198 30.2194 35.6645 30.2194 35.0753 30.8084L34.0086 31.8751L32.9419 30.8084C32.3529 30.2194 31.3976 30.2194 30.8085 30.8084C30.2193 31.3975 30.2193 32.3528 30.8085 32.9419L31.8751 34.0086L30.8085 35.0753C30.2193 35.6644 30.2193 36.6196 30.8085 37.2088C31.103 37.5034 31.4891 37.6507 31.8751 37.6507C32.2612 37.6507 32.6474 37.5034 32.9418 37.2088L34.0086 36.1421L35.0753 37.2088C35.3699 37.5034 35.756 37.6507 36.142 37.6507C36.528 37.6507 36.9142 37.5034 37.2087 37.2088C37.7979 36.6197 37.7979 35.6645 37.2087 35.0753L36.1421 34.0086L37.2088 32.9419C37.7981 32.3528 37.7981 31.3975 37.2088 30.8084Z" fill="currentColor"/>
</g>
<circle cx="27.5" cy="27.5" r="26" stroke="white" stroke-width="3"/>
<defs>
<clipPath id="clip0_16_278">
<rect width="33.1897" height="33.1897" fill="white" transform="translate(11.3793 11.3793)"/>
</clipPath>
</defs>
</svg>
